<svg width="67" height="66" viewBox="0 0 67 66" fill="none" xmlns="http://www.w3.org/2000/svg">
<mask id="path-1-outside-1_1896_46684" maskUnits="userSpaceOnUse" x="0.5" y="0" width="66" height="66" fill="black">
<rect fill="white" x="0.5" width="66" height="66"/>
<path fill-rule="evenodd" clip-rule="evenodd" d="M64 33C64 49.8447 50.3447 63.5 33.5 63.5C16.6553 63.5 3 49.8447 3 33C3 16.1553 16.6553 2.5 33.5 2.5C50.3447 2.5 64 16.1553 64 33ZM65.5 33C65.5 50.6731 51.1731 65 33.5 65C15.8269 65 1.5 50.6731 1.5 33C1.5 15.3269 15.8269 1 33.5 1C51.1731 1 65.5 15.3269 65.5 33ZM29.2609 43.1738L50.0608 22.7144L48.9388 21.5737L28.7045 41.4767L19.6656 32.4378L18.5342 33.5691L28.1342 43.1691C28.4448 43.4797 28.9477 43.4818 29.2609 43.1738Z"/>
</mask>
<path fill-rule="evenodd" clip-rule="evenodd" d="M64 33C64 49.8447 50.3447 63.5 33.5 63.5C16.6553 63.5 3 49.8447 3 33C3 16.1553 16.6553 2.5 33.5 2.5C50.3447 2.5 64 16.1553 64 33ZM65.5 33C65.5 50.6731 51.1731 65 33.5 65C15.8269 65 1.5 50.6731 1.5 33C1.5 15.3269 15.8269 1 33.5 1C51.1731 1 65.5 15.3269 65.5 33ZM29.2609 43.1738L50.0608 22.7144L48.9388 21.5737L28.7045 41.4767L19.6656 32.4378L18.5342 33.5691L28.1342 43.1691C28.4448 43.4797 28.9477 43.4818 29.2609 43.1738Z" fill="#31912D"/>
<path d="M50.0608 22.7144L50.7621 23.4273C50.9511 23.2413 51.0586 22.9879 51.0608 22.7227C51.063 22.4574 50.9597 22.2022 50.7737 22.0132L50.0608 22.7144ZM29.2609 43.1738L29.9621 43.8867H29.9621L29.2609 43.1738ZM48.9388 21.5737L49.6517 20.8725C49.2645 20.4788 48.6313 20.4735 48.2376 20.8608L48.9388 21.5737ZM28.7045 41.4767L27.9974 42.1838C28.3857 42.5721 29.0143 42.5747 29.4058 42.1896L28.7045 41.4767ZM19.6656 32.4378L20.3727 31.7306C20.1851 31.5431 19.9308 31.4378 19.6656 31.4378C19.4003 31.4378 19.146 31.5431 18.9584 31.7306L19.6656 32.4378ZM18.5342 33.5691L17.8271 32.862C17.4365 33.2525 17.4365 33.8857 17.8271 34.2762L18.5342 33.5691ZM28.1342 43.1691L27.4271 43.8762L28.1342 43.1691ZM33.5 64.5C50.897 64.5 65 50.397 65 33H63C63 49.2924 49.7924 62.5 33.5 62.5V64.5ZM2 33C2 50.397 16.103 64.5 33.5 64.5V62.5C17.2076 62.5 4 49.2924 4 33H2ZM33.5 1.5C16.103 1.5 2 15.603 2 33H4C4 16.7076 17.2076 3.5 33.5 3.5V1.5ZM65 33C65 15.603 50.897 1.5 33.5 1.5V3.5C49.7924 3.5 63 16.7076 63 33H65ZM33.5 66C51.7254 66 66.5 51.2254 66.5 33H64.5C64.5 50.1208 50.6208 64 33.5 64V66ZM0.5 33C0.5 51.2254 15.2746 66 33.5 66V64C16.3792 64 2.5 50.1208 2.5 33H0.5ZM33.5 0C15.2746 0 0.5 14.7746 0.5 33H2.5C2.5 15.8792 16.3792 2 33.5 2V0ZM66.5 33C66.5 14.7746 51.7254 0 33.5 0V2C50.6208 2 64.5 15.8792 64.5 33H66.5ZM49.3596 22.0015L28.5596 42.4609L29.9621 43.8867L50.7621 23.4273L49.3596 22.0015ZM48.2259 22.275L49.3479 23.4156L50.7737 22.0132L49.6517 20.8725L48.2259 22.275ZM29.4058 42.1896L49.6401 22.2866L48.2376 20.8608L28.0033 40.7638L29.4058 42.1896ZM18.9584 33.1449L27.9974 42.1838L29.4116 40.7696L20.3727 31.7306L18.9584 33.1449ZM19.2413 34.2762L20.3727 33.1449L18.9584 31.7306L17.8271 32.862L19.2413 34.2762ZM28.8413 42.462L19.2413 32.862L17.8271 34.2762L27.4271 43.8762L28.8413 42.462ZM28.5596 42.4609C28.6379 42.3839 28.7636 42.3844 28.8413 42.462L27.4271 43.8762C28.1259 44.5751 29.2575 44.5797 29.9621 43.8867L28.5596 42.4609Z" fill="#31912D" mask="url(#path-1-outside-1_1896_46684)"/>
</svg>
